<svg width="24" height="24" viewBox="0 0 24 24" fill="none" xmlns="http://www.w3.org/2000/svg">
<path d="M11.9295 10.383C12.8205 10.383 13.5465 11.1098 13.5465 12C13.5465 12.8903 12.8197 13.5938 11.9295 13.5938C11.0392 13.5938 10.3357 12.8903 10.3357 12C10.3357 11.1098 11.0392 10.383 11.9295 10.383ZM11.9295 6.39825C17.2267 6.39825 21.0465 11.367 21.0465 11.367C21.3045 11.6955 21.3045 12.2813 21.0465 12.609C21.0465 12.609 17.226 17.5778 11.9295 17.5778C6.63299 17.5778 2.81249 12.609 2.81249 12.609C2.55449 12.2805 2.55449 11.6948 2.81249 11.367C2.81249 11.367 6.63299 6.39825 11.9295 6.39825ZM11.9295 16.008C14.133 16.008 15.9375 14.2035 15.9375 12C15.9375 9.7965 14.133 7.992 11.9295 7.992C9.72599 7.992 7.92149 9.7965 7.92149 12C7.92149 14.2035 9.72599 16.008 11.9295 16.008Z" fill="white" stroke="white"/>
</svg>
