<svg width="34" height="34" viewBox="0 0 34 34" fill="none" xmlns="http://www.w3.org/2000/svg">
<g clip-path="url(#clip0_21_1422)">
<path d="M29.3155 17.0526C29.3156 16.5004 28.8678 16.0526 28.3156 16.0527L17.9997 16.0526L17.9998 5.73685C17.9998 5.18456 17.552 4.73684 16.9998 4.73685C16.4475 4.73684 15.9998 5.18456 15.9998 5.73685L15.9997 16.0526L5.68402 16.0526C5.13168 16.0527 4.68401 16.5003 4.68396 17.0527C4.68397 17.6049 5.13169 18.0527 5.68395 18.0527L15.9997 18.0526L15.9997 28.3685C15.9997 28.9207 16.4475 29.3685 16.9997 29.3685C17.5521 29.3684 17.9997 28.9207 17.9997 28.3685L17.9997 18.0526L28.3156 18.0526C28.8678 18.0526 29.3155 17.6049 29.3155 17.0526Z" fill="white" stroke="white"/>
</g>
<defs>
<clipPath id="clip0_21_1422">
<rect width="24" height="24" fill="white" transform="translate(16.9998 0.0296021) rotate(45)"/>
</clipPath>
</defs>
</svg>
